<svg id="KU_New" xmlns="http://www.w3.org/2000/svg" viewBox="0 0 62 62"><defs><style>.cls-1{fill:#00665e;}.cls-2{fill:#a8ad00;}</style></defs><polygon class="cls-1" points="11.21 53.65 9.67 51 8.94 51.86 8.94 53.65 7.69 53.65 7.69 47.65 8.94 47.65 8.94 50.12 10.99 47.65 12.56 47.65 10.51 50.04 12.68 53.65 11.21 53.65"/><path class="cls-1" d="M15.56,49.58l-.7,2h1.36Zm1.36,4.07-.34-1H14.5l-.18.52c-.07.18-.13.35-.19.52H12.82l2.21-6h1l2.23,6Z"/><path class="cls-1" d="M23,51.87a1.66,1.66,0,0,1-.17.78,1.71,1.71,0,0,1-.49.58,2.24,2.24,0,0,1-.71.35,2.92,2.92,0,0,1-.9.13,4.65,4.65,0,0,1-.66-.05,2.31,2.31,0,0,1-.59-.14,2.17,2.17,0,0,1-.53-.26,2.47,2.47,0,0,1-.49-.39l.83-.81a1.71,1.71,0,0,0,.67.4,2.43,2.43,0,0,0,.77.12,1.35,1.35,0,0,0,.77-.18.61.61,0,0,0,.25-.52.77.77,0,0,0,0-.27.85.85,0,0,0-.14-.19.72.72,0,0,0-.21-.12l-.28-.08-.72-.09a2.7,2.7,0,0,1-.68-.19,1.5,1.5,0,0,1-.51-.33,1.32,1.32,0,0,1-.33-.5,1.76,1.76,0,0,1-.11-.68,1.86,1.86,0,0,1,.14-.75,1.73,1.73,0,0,1,.42-.58,2,2,0,0,1,.67-.38,2.86,2.86,0,0,1,.91-.13,3.6,3.6,0,0,1,.58,0,2.83,2.83,0,0,1,.52.13,2,2,0,0,1,.47.23,2.6,2.6,0,0,1,.43.33l-.82.79a1.5,1.5,0,0,0-.3-.23,2.08,2.08,0,0,0-.32-.12,1.7,1.7,0,0,0-.31-.06h-.29a1.48,1.48,0,0,0-.39.05,1.06,1.06,0,0,0-.28.15.69.69,0,0,0-.16.22.86.86,0,0,0-.05.27.62.62,0,0,0,.05.25.7.7,0,0,0,.15.19.66.66,0,0,0,.22.12,1.07,1.07,0,0,0,.27.06l.71.1a2.78,2.78,0,0,1,.69.19,1.52,1.52,0,0,1,.85.87,2,2,0,0,1,.11.71"/><polygon class="cls-1" points="24.22 53.65 24.22 47.65 28.27 47.65 28.27 48.76 25.47 48.76 25.47 50.05 27.86 50.05 27.86 51.17 25.47 51.17 25.47 52.52 28.27 52.52 28.27 53.65 24.22 53.65"/><polygon class="cls-1" points="31.52 48.74 31.52 53.65 30.26 53.65 30.26 48.74 28.69 48.74 28.69 47.65 33.09 47.65 33.09 48.74 31.52 48.74"/><path class="cls-1" d="M37.86,51.87a1.79,1.79,0,0,1-.17.78,1.71,1.71,0,0,1-.49.58,2.2,2.2,0,0,1-.72.35,2.82,2.82,0,0,1-.89.13,4.65,4.65,0,0,1-.66-.05,2.31,2.31,0,0,1-.59-.14,2,2,0,0,1-.53-.26,2.47,2.47,0,0,1-.49-.39l.83-.81a1.75,1.75,0,0,0,.66.4,2.54,2.54,0,0,0,.78.12,1.35,1.35,0,0,0,.77-.18.61.61,0,0,0,.25-.52.59.59,0,0,0,0-.27.59.59,0,0,0-.13-.19.72.72,0,0,0-.21-.12l-.28-.08-.72-.09a2.7,2.7,0,0,1-.68-.19,1.65,1.65,0,0,1-.52-.33,1.3,1.3,0,0,1-.32-.5,1.76,1.76,0,0,1-.12-.68,1.86,1.86,0,0,1,.15-.75,1.73,1.73,0,0,1,.42-.58,2,2,0,0,1,.67-.38,2.84,2.84,0,0,1,.9-.13,3.65,3.65,0,0,1,.59,0,2.83,2.83,0,0,1,.52.13,2.27,2.27,0,0,1,.47.23,2.6,2.6,0,0,1,.43.33l-.82.79a1.5,1.5,0,0,0-.3-.23,2.08,2.08,0,0,0-.32-.12L36,48.7h-.29a1.48,1.48,0,0,0-.39.05,1.06,1.06,0,0,0-.28.15.69.69,0,0,0-.16.22.86.86,0,0,0,0,.27.62.62,0,0,0,0,.25.55.55,0,0,0,.15.19.72.72,0,0,0,.21.12,1.31,1.31,0,0,0,.27.06l.71.1a2.75,2.75,0,0,1,.7.19,1.52,1.52,0,0,1,.85.87,2.2,2.2,0,0,1,.11.71"/><path class="cls-1" d="M41.08,49.58l-.7,2h1.36Zm1.36,4.07-.34-1H40l-.18.52c-.07.18-.13.35-.19.52H38.34l2.21-6h1l2.23,6Z"/><path class="cls-1" d="M47.8,49.5a.73.73,0,0,0-.06-.3.61.61,0,0,0-.15-.24,1,1,0,0,0-.25-.15,1.16,1.16,0,0,0-.34-.05H45.92v1.46H47a1.16,1.16,0,0,0,.34,0,1,1,0,0,0,.25-.15.51.51,0,0,0,.15-.23.65.65,0,0,0,.06-.29m.08,4.15L46.7,51.29h-.78v2.36H44.67v-6h2.41a2.24,2.24,0,0,1,.84.15,1.82,1.82,0,0,1,.63.39,1.79,1.79,0,0,1,.39.59,2,2,0,0,1,.13.72A1.53,1.53,0,0,1,49,50a1.7,1.7,0,0,1-.24.44,1.66,1.66,0,0,1-.35.35,1.85,1.85,0,0,1-.4.24l1.36,2.58Z"/><polygon class="cls-1" points="52.52 48.74 52.52 53.65 51.26 53.65 51.26 48.74 49.7 48.74 49.7 47.65 54.09 47.65 54.09 48.74 52.52 48.74"/><rect class="cls-2" x="7.68" y="36.91" width="46.65" height="6.15"/><path class="cls-1" d="M48.25,0V20.12c0,3.59-2.16,5.74-5.47,5.74s-5.42-2.15-5.42-5.74V2a2,2,0,0,0-2-1.95h-9.5a2.93,2.93,0,0,0-2.25,1.06L13.8,13.13V0H7.67V30.77H13.8V21.38l4.06-4.82,8.06,14.21h7.15L21.91,12,30.85,1.29a.2.2,0,0,1,.23-.06.2.2,0,0,1,.14.2V20.34c0,6.62,5.12,11,11.56,11s11.55-4.34,11.55-11V0Z"/><path class="cls-1" d="M11.91,60.77a2,2,0,0,1-.44.65,1.92,1.92,0,0,1-.68.43,2.5,2.5,0,0,1-.88.15A2.41,2.41,0,0,1,9,61.85a1.92,1.92,0,0,1-.68-.43,1.83,1.83,0,0,1-.44-.65,2.06,2.06,0,0,1-.16-.84v-4h.72v4a1.75,1.75,0,0,0,.1.62,1.31,1.31,0,0,0,.28.47,1.19,1.19,0,0,0,.45.3,1.6,1.6,0,0,0,.6.11,1.66,1.66,0,0,0,.61-.11A1.19,1.19,0,0,0,11,61a1.31,1.31,0,0,0,.28-.47,1.75,1.75,0,0,0,.1-.62v-4h.71v4a2.24,2.24,0,0,1-.15.84"/><polygon class="cls-1" points="17.83 61.94 14.44 57.13 14.44 61.94 13.73 61.94 13.73 55.89 14.32 55.89 17.71 60.69 17.71 55.89 18.42 55.89 18.42 61.94 17.83 61.94"/><rect class="cls-1" x="20.24" y="55.89" width="0.69" height="6.05"/><polygon class="cls-1" points="24.56 61.94 23.97 61.94 21.91 55.89 22.66 55.89 24.26 60.69 25.86 55.89 26.63 55.89 24.56 61.94"/><polygon class="cls-1" points="27.54 61.94 27.54 55.89 31.47 55.89 31.47 56.51 28.25 56.51 28.25 58.58 30.99 58.58 30.99 59.2 28.25 59.2 28.25 61.32 31.47 61.32 31.47 61.94 27.54 61.94"/><path class="cls-1" d="M36.27,57.58a1.16,1.16,0,0,0-.09-.47.9.9,0,0,0-.25-.33,1.2,1.2,0,0,0-.39-.2,1.53,1.53,0,0,0-.49-.07H33.4v2.16h1.65a1.87,1.87,0,0,0,.49-.07,1.2,1.2,0,0,0,.39-.2.94.94,0,0,0,.25-.34,1.21,1.21,0,0,0,.09-.48m0,4.36-1.43-2.66H33.4v2.66h-.71v-6h2.42a2.33,2.33,0,0,1,.76.12,1.48,1.48,0,0,1,.59.33,1.38,1.38,0,0,1,.39.53,1.56,1.56,0,0,1,.14.7,1.64,1.64,0,0,1-.1.6,1.44,1.44,0,0,1-.28.48,1.47,1.47,0,0,1-.43.35,1.67,1.67,0,0,1-.54.2c.24.46.49.92.74,1.38s.5.91.75,1.36Z"/><path class="cls-1" d="M42,60.28a1.64,1.64,0,0,1-.15.71,1.41,1.41,0,0,1-.42.54,2.08,2.08,0,0,1-.66.35,2.93,2.93,0,0,1-.86.12,4,4,0,0,1-.63,0,2.17,2.17,0,0,1-.53-.14,2.64,2.64,0,0,1-.47-.25,2.92,2.92,0,0,1-.43-.37l.44-.47a2.53,2.53,0,0,0,.37.31,1.9,1.9,0,0,0,.37.2,2,2,0,0,0,.42.11,2.35,2.35,0,0,0,.47,0,2,2,0,0,0,.58-.08,1.38,1.38,0,0,0,.44-.21,1,1,0,0,0,.28-.34,1.15,1.15,0,0,0,.1-.46,1.08,1.08,0,0,0-.08-.42.84.84,0,0,0-.22-.3,1,1,0,0,0-.33-.2,1.8,1.8,0,0,0-.43-.11l-.7-.09a2.51,2.51,0,0,1-.61-.17,1.72,1.72,0,0,1-.51-.33,1.54,1.54,0,0,1-.34-.48,1.67,1.67,0,0,1-.12-.65,1.73,1.73,0,0,1,.13-.69,1.65,1.65,0,0,1,.4-.54,1.72,1.72,0,0,1,.61-.34,2.64,2.64,0,0,1,.81-.13,4.24,4.24,0,0,1,.53,0,2.32,2.32,0,0,1,.47.13,2.06,2.06,0,0,1,.42.21,3.52,3.52,0,0,1,.39.31L41.3,57a2,2,0,0,0-.61-.4l-.36-.1a2.81,2.81,0,0,0-.43,0,1.62,1.62,0,0,0-.52.08.94.94,0,0,0-.39.23.85.85,0,0,0-.24.35,1,1,0,0,0-.09.44.76.76,0,0,0,.09.38.93.93,0,0,0,.22.3,1.27,1.27,0,0,0,.34.2,1.91,1.91,0,0,0,.41.11l.65.11a2.15,2.15,0,0,1,.61.18,1.82,1.82,0,0,1,.52.32,1.6,1.6,0,0,1,.36.49,1.53,1.53,0,0,1,.13.66"/><rect class="cls-1" x="43.28" y="55.89" width="0.7" height="6.05"/><polygon class="cls-1" points="47.56 56.51 47.56 61.94 46.86 61.94 46.86 56.51 45.05 56.51 45.05 55.89 49.38 55.89 49.38 56.51 47.56 56.51"/><polygon class="cls-1" points="52.36 59.43 52.36 61.94 51.65 61.94 51.65 59.43 49.78 55.89 50.55 55.89 52 58.74 53.46 55.89 54.23 55.89 52.36 59.43"/></svg>